<svg width="32" height="32" viewBox="0 0 32 32" fill="none" xmlns="http://www.w3.org/2000/svg">
<path fill-rule="evenodd" clip-rule="evenodd" d="M12.3822 3.34263C11.5248 3.52487 10.3437 3.7481 9.75776 3.83863C8.2082 4.07792 7.41645 4.60718 7.41645 5.40367C7.41645 5.53821 7.30281 5.69654 7.15661 5.76571C6.79676 5.93605 6.08989 6.83521 5.68846 7.63331C5.19431 8.61596 5.04407 9.41938 5.17618 10.3747C5.26291 11.0028 5.25263 11.2123 5.12664 11.3771C4.91599 11.6525 5.01912 14.5038 5.25702 14.9806C5.39987 15.2671 5.39294 15.33 5.19073 15.5794C5.00238 15.8116 4.97374 15.9842 5.01854 16.6129C5.04811 17.0279 5.1689 17.5736 5.28693 17.8254C5.69378 18.6937 6.6255 19.9659 7.0514 20.2348C7.28584 20.3828 7.54533 20.5855 7.62824 20.6854C7.71105 20.7852 7.94421 20.9001 8.14619 20.9406C8.34829 20.9813 8.59935 21.0384 8.70421 21.0677C8.91427 21.1264 9.03206 21.4811 9.10043 22.26C9.12503 22.5418 9.19801 22.825 9.26245 22.8894C9.32689 22.9538 9.37967 23.2237 9.37967 23.4891C9.37967 23.777 9.44954 24.0295 9.5529 24.1153C9.64817 24.1944 9.72612 24.3596 9.72612 24.4826C9.72612 24.6057 9.76816 24.6803 9.81955 24.6486C9.93284 24.5785 10.5345 25.1957 10.5345 25.382C10.5345 25.455 10.5846 25.4837 10.6458 25.446C10.7965 25.3528 11.2269 25.7982 11.2291 26.0496C11.2306 26.2224 11.2473 26.2265 11.3429 26.0785C11.4378 25.9316 11.4551 25.937 11.4566 26.1142C11.4576 26.2291 11.5103 26.291 11.5739 26.2517C11.6374 26.2125 11.6893 26.2874 11.6893 26.4181C11.6893 26.5489 11.7413 26.6559 11.8048 26.6559C11.8683 26.6559 11.9203 26.6039 11.9203 26.5404C11.9203 26.4769 12.0242 26.5289 12.1513 26.6559C12.2783 26.7829 12.3822 26.9388 12.3822 27.0024C12.3822 27.1108 12.5504 27.1661 12.7661 27.1287C12.8185 27.1196 12.8295 27.1637 12.7906 27.2267C12.7516 27.2897 12.8257 27.4075 12.9552 27.4883C13.0847 27.5692 13.1914 27.7137 13.1924 27.8097C13.1939 27.9539 13.2115 27.9565 13.2953 27.8244C13.3747 27.699 13.4388 27.7297 13.5948 27.9678C13.704 28.1343 13.8361 28.2443 13.8883 28.2121C13.9405 28.1797 14.0564 28.2578 14.1458 28.3855C14.2353 28.5132 14.3428 28.5833 14.3847 28.5414C14.4267 28.4995 14.461 28.5455 14.461 28.6435C14.461 28.7415 14.5336 28.8821 14.6224 28.9558C14.8183 29.1184 15.3001 29.2242 15.2145 29.0858C15.181 29.0315 15.2604 29.0151 15.3912 29.0493C15.5353 29.087 15.6044 29.1751 15.5668 29.2731C15.5289 29.3717 15.6122 29.4758 15.78 29.5395C15.9314 29.5972 16.0894 29.6994 16.1311 29.7668C16.1728 29.8343 16.37 29.8895 16.5696 29.8895C16.8517 29.8895 16.9015 29.8586 16.7937 29.7509C16.6051 29.5623 16.6196 29.4275 16.8284 29.4275C16.9236 29.4275 17.0016 29.5023 17.0016 29.5939C17.0016 29.6855 17.053 29.7921 17.1158 29.8309C17.1812 29.8713 17.2006 29.825 17.1612 29.7222C17.1159 29.6044 17.1583 29.543 17.2848 29.543C17.3924 29.543 17.4434 29.5976 17.4005 29.667C17.3564 29.7384 17.4211 29.7302 17.5531 29.6479C17.7467 29.5269 17.8322 29.5437 18.1005 29.7548C18.4976 30.0671 18.7437 30.088 18.3713 29.7778C18.2142 29.6468 18.1634 29.549 18.2512 29.5468C18.3352 29.5447 18.4819 29.621 18.5771 29.7162C18.6724 29.8115 18.8086 29.8895 18.8797 29.8895C18.9507 29.8895 18.9081 29.8158 18.785 29.7257C18.6618 29.6356 18.6027 29.5201 18.6537 29.4692C18.7046 29.4182 18.7955 29.4529 18.8556 29.5464C18.9483 29.6905 18.9805 29.6919 19.0686 29.5551C19.1522 29.4253 19.1833 29.4365 19.2285 29.6129C19.2759 29.7983 19.2866 29.7921 19.2979 29.5719C19.3127 29.2862 19.5302 29.2314 19.7569 29.4564C19.8736 29.5721 19.8878 29.5624 19.8289 29.4075C19.7803 29.2799 19.8368 29.1706 19.9952 29.0859C20.1896 28.9818 20.2351 28.991 20.2351 29.1348C20.2351 29.2322 20.1745 29.312 20.1004 29.312C20.0263 29.312 19.9929 29.3393 20.0261 29.3725C20.1376 29.4839 20.4523 29.2947 20.3966 29.1498C20.3664 29.0711 20.4811 28.9432 20.6515 28.8656L20.9613 28.7245L20.7504 29.0463L20.5394 29.3682L20.8204 29.1825C20.9748 29.0804 21.1208 28.8728 21.1446 28.7213C21.1857 28.4596 21.1928 28.4573 21.2904 28.6769C21.3788 28.8755 21.3876 28.8656 21.3528 28.6058C21.3306 28.4398 21.3889 28.2059 21.4822 28.0862C21.6469 27.8751 21.6498 27.8754 21.5784 28.0995C21.506 28.327 21.5075 28.3271 21.6785 28.1063C21.7738 27.9829 21.8519 27.7911 21.8519 27.68C21.8519 27.4288 22.0426 27.2963 22.1217 27.4925C22.1538 27.5723 22.1843 27.5172 22.1892 27.3701C22.1942 27.223 22.2517 27.0029 22.317 26.881C22.453 26.6268 22.5536 25.9912 22.5954 25.1218C22.6113 24.7905 22.6615 24.3636 22.7067 24.173C22.9231 23.2638 22.9624 22.9297 22.9919 21.7478C23.0131 20.8997 22.9421 19.9232 22.7783 18.8095C22.6434 17.8921 22.5365 16.6708 22.5407 16.0956C22.5448 15.5204 22.5508 14.79 22.5538 14.4724C22.5569 14.1548 22.5171 13.5245 22.4654 13.0717L22.3714 12.2485L23.1221 12.1775C23.5351 12.1386 24.5285 12.1062 25.3297 12.1058C26.6386 12.1051 26.8182 12.0801 27.0979 11.86L27.4092 11.6152L27.1575 11.3472C26.8938 11.0665 25.2246 10.3684 23.3388 9.75001C22.7274 9.54954 22.1533 9.32423 22.063 9.24928C21.9157 9.12698 21.7441 8.61654 21.3733 7.1969C20.9116 5.42965 19.3433 4.16592 17.288 3.90527C16.126 3.75803 15.9911 3.7131 15.5028 3.31191C14.988 2.88867 14.495 2.89352 12.3822 3.34263ZM14.9377 28.9268C15.0813 29.1009 15.0719 29.106 14.8363 28.9805C14.5675 28.8373 14.5014 28.7346 14.6778 28.7346C14.7335 28.7346 14.8505 28.8211 14.9377 28.9268ZM16.1959 29.4564C16.419 29.6954 16.4325 29.6977 16.3641 29.4853L16.2899 29.2543L16.4782 29.4853C16.6439 29.6883 16.6454 29.7206 16.4909 29.7529C16.31 29.7907 15.7413 29.4374 15.7349 29.2832C15.7278 29.1142 15.9566 29.2001 16.1959 29.4564Z" fill="black"/>
</svg>
