<svg width="32" height="32" viewBox="0 0 32 32" fill="none" xmlns="http://www.w3.org/2000/svg">
<path d="M8.00016 26.6666C7.26683 26.6666 6.63927 26.4057 6.1175 25.8839C5.59483 25.3613 5.3335 24.7333 5.3335 23.9999V14.6666C5.3335 13.9333 5.59483 13.3053 6.1175 12.7826C6.63927 12.2608 7.26683 11.9999 8.00016 11.9999C8.7335 11.9999 9.36105 12.2608 9.88283 12.7826C10.4055 13.3053 10.6668 13.9333 10.6668 14.6666V23.9999C10.6668 24.7333 10.4055 25.3613 9.88283 25.8839C9.36105 26.4057 8.7335 26.6666 8.00016 26.6666ZM16.0002 26.6666C15.2668 26.6666 14.6393 26.4057 14.1175 25.8839C13.5948 25.3613 13.3335 24.7333 13.3335 23.9999V7.99992C13.3335 7.26659 13.5948 6.63903 14.1175 6.11725C14.6393 5.59459 15.2668 5.33325 16.0002 5.33325C16.7335 5.33325 17.3615 5.59459 17.8842 6.11725C18.4059 6.63903 18.6668 7.26659 18.6668 7.99992V23.9999C18.6668 24.7333 18.4059 25.3613 17.8842 25.8839C17.3615 26.4057 16.7335 26.6666 16.0002 26.6666ZM24.0002 26.6666C23.2668 26.6666 22.6388 26.4057 22.1162 25.8839C21.5944 25.3613 21.3335 24.7333 21.3335 23.9999V19.9999C21.3335 19.2666 21.5944 18.6386 22.1162 18.1159C22.6388 17.5941 23.2668 17.3333 24.0002 17.3333C24.7335 17.3333 25.3615 17.5941 25.8842 18.1159C26.4059 18.6386 26.6668 19.2666 26.6668 19.9999V23.9999C26.6668 24.7333 26.4059 25.3613 25.8842 25.8839C25.3615 26.4057 24.7335 26.6666 24.0002 26.6666Z" fill="black"/>
</svg>
