<svg width="32" height="32" viewBox="0 0 32 32" fill="none" xmlns="http://www.w3.org/2000/svg">
<path d="M6.40166 28C6.03731 27.9983 5.6885 27.8522 5.43172 27.5937C5.17493 27.3352 5.03113 26.9854 5.03184 26.6211C5.03503 26.4826 5.05665 26.3451 5.09613 26.2123L6.08291 22.6429C6.12416 22.5111 6.07756 22.3782 6.01702 22.2732L6.00524 22.2518C6.00095 22.2448 5.98059 22.2164 5.96613 22.1955C5.95166 22.1746 5.93506 22.1521 5.92006 22.1302L5.90988 22.1157C4.66389 20.2272 3.99982 18.0145 4.00006 15.752C3.99041 12.6668 5.19738 9.75197 7.3997 7.54054C9.67863 5.25732 12.7268 4 15.9904 4C18.759 3.99863 21.4454 4.94035 23.6072 6.67C25.7206 8.37089 27.1895 10.7414 27.7434 13.3493C27.914 14.1415 27.9998 14.9496 27.9995 15.76C27.9995 18.917 26.7867 21.8821 24.5838 24.1102C22.3617 26.3602 19.3777 27.5955 16.1822 27.5955C15.0572 27.5955 13.6177 27.3084 12.9267 27.1134C12.0952 26.8809 11.3072 26.5777 11.2204 26.5455C11.1286 26.5104 11.0311 26.4922 10.9327 26.492C10.8261 26.4913 10.7204 26.5123 10.622 26.5536L10.5765 26.5713L6.96149 27.8773C6.78394 27.9521 6.5942 27.9936 6.40166 28Z" fill="black"/>
</svg>
